<svg width="28" height="35" viewBox="0 0 28 35" fill="none" xmlns="http://www.w3.org/2000/svg">
<path d="M12.755 0.107628C11.9679 0.316181 11.1875 0.935104 10.8646 1.60112L10.6964 1.94422L9.14237 1.95095C7.59506 1.95095 7.58834 1.95095 7.44033 2.1124C7.3596 2.19986 7.27215 2.39495 7.25197 2.54969L7.21833 2.81878L4.41299 2.84569C2.28712 2.85915 1.55383 2.88606 1.36546 2.95333C0.914726 3.12152 0.490898 3.50498 0.255438 3.96245L0.0334324 4.38627V18.5946C0.0334324 34.4713 -0.00693215 33.1393 0.517807 33.7381C0.665811 33.9062 0.948363 34.1282 1.13673 34.2292L1.47983 34.4108H13.5556H25.6313L25.9744 34.2292C26.1628 34.1282 26.4453 33.9062 26.5933 33.7381C27.1181 33.1393 27.0777 34.4646 27.0777 18.6013V4.393L26.8692 3.98263C26.6337 3.51171 26.257 3.15516 25.8062 2.98024C25.5304 2.87933 25.1806 2.85915 22.6981 2.83897L19.8928 2.81878L19.8592 2.54969C19.839 2.39495 19.7515 2.19986 19.6708 2.1124C19.5228 1.95095 19.5161 1.95095 17.9688 1.95095L16.4147 1.94422L16.2533 1.61457C16.0649 1.22438 15.3922 0.55164 14.9885 0.34309C14.3292 0.00671768 13.4614 -0.0807381 12.755 0.107628ZM14.4638 1.30511C14.9212 1.53384 15.2643 1.92403 15.4527 2.44205C15.5267 2.65733 15.6545 2.87933 15.7353 2.92642C15.8429 3.00715 16.1658 3.02733 17.3364 3.02733H18.803L18.7895 4.41991L18.7693 5.81922H13.5556H8.34181L8.32163 4.41991L8.30817 3.02733H9.77475C11.4499 3.02733 11.4633 3.02733 11.6383 2.49587C12.0352 1.29839 13.3268 0.753464 14.4638 1.30511ZM7.23178 4.40646V4.90429L4.80991 4.92447C2.39476 4.94465 2.39476 4.94465 2.24003 5.09938L2.0853 5.25411V18.6417V32.036L2.27367 32.1975L2.46203 32.3589H13.5556H24.6491L24.8375 32.1975L25.0258 32.036V18.6417V5.25411L24.8711 5.09938C24.7164 4.94465 24.7164 4.94465 22.3012 4.92447L19.8794 4.90429V4.40646V3.9019H22.4896C23.9965 3.9019 25.194 3.92881 25.3353 3.96917C25.4631 4.00281 25.6582 4.13063 25.7726 4.245L25.9677 4.44682L25.9879 18.5542C26.008 34.3099 26.0551 32.9308 25.5304 33.2268L25.2748 33.368H13.5556H1.83638L1.58074 33.2268C1.056 32.9308 1.10309 34.3099 1.12328 18.5542L1.14346 4.44682L1.34528 4.23827C1.45292 4.12391 1.63456 4.00281 1.74893 3.9759C1.85657 3.94226 3.14151 3.90863 4.59463 3.90863L7.23178 3.9019V4.40646ZM7.25197 6.29687C7.27215 6.49196 7.33942 6.66015 7.42688 6.75433L7.57488 6.89561H13.5556H19.5363L19.6843 6.75433C19.7717 6.66015 19.839 6.49196 19.8592 6.29687L19.8995 5.9874L21.9245 6.00086L23.9494 6.02104L23.9696 18.6552L23.9831 31.2825H13.5556H3.12805V18.6821C3.12805 11.7461 3.14823 6.05468 3.17514 6.03449C3.19532 6.00759 4.11698 5.9874 5.21355 5.9874H7.2116L7.25197 6.29687Z" fill="#006FCB"/>
<path d="M7.52771 9.05511C6.55896 9.3982 6.06113 10.6293 6.52532 11.5375C6.61278 11.7192 6.68005 11.8739 6.67333 11.8739C6.6666 11.8806 6.49841 11.995 6.30332 12.1363C5.65076 12.6072 5.19329 13.4279 5.10584 14.2756C5.0722 14.6456 5.08565 14.7196 5.21347 14.8811L5.35475 15.0694H8.13318H10.9116L11.0529 14.9147C11.3018 14.6456 11.2278 13.919 10.878 13.1925C10.7031 12.8225 10.1245 12.1699 9.78813 11.9614L9.61994 11.8604L9.78813 11.5106C9.97649 11.0935 9.99668 10.4679 9.82849 10.0709C9.45176 9.20311 8.409 8.74564 7.52771 9.05511ZM8.49646 10.118C9.01447 10.3871 8.98756 11.1541 8.46282 11.403C8.14663 11.5577 7.82372 11.4904 7.60844 11.2281C7.09715 10.6159 7.79008 9.75476 8.49646 10.118ZM8.77901 12.6879C9.05484 12.7686 9.22975 12.883 9.51903 13.1723C9.72758 13.3876 9.9294 13.6567 9.97649 13.771L10.0505 13.993H8.16682C6.71369 13.993 6.28986 13.9729 6.28986 13.9056C6.28986 13.8652 6.35714 13.7172 6.43114 13.5894C6.94242 12.7417 7.82372 12.4054 8.77901 12.6879Z" fill="#006FCB"/>
<path d="M12.7079 10.0037C12.3245 10.0777 12.1765 10.663 12.4725 10.9051C12.6205 11.0262 12.8223 11.033 16.7242 11.033C20.7338 11.033 20.8212 11.033 20.9558 10.8984C21.097 10.7571 21.1307 10.4342 21.023 10.2257C20.8885 9.97002 20.6598 9.95657 16.6906 9.9633C14.5782 9.97002 12.7819 9.99021 12.7079 10.0037Z" fill="#006FCB"/>
<path d="M12.5397 13.0714C12.4052 13.1723 12.2773 13.4145 12.2773 13.5557C12.2773 13.6163 12.3648 13.7576 12.4724 13.8652L12.6675 14.0603H16.704C20.6799 14.0603 20.7405 14.0603 20.9154 13.919C21.0499 13.8114 21.0903 13.7239 21.0903 13.5221C21.0903 13.3203 21.0499 13.2328 20.9154 13.1252C20.7405 12.9839 20.6799 12.9839 16.6905 12.9839C13.6161 12.9906 12.6204 13.0108 12.5397 13.0714Z" fill="#006FCB"/>
<path d="M7.72284 16.0786C7.39319 16.1526 6.92227 16.462 6.72045 16.7177C6.31681 17.2491 6.23608 18.0362 6.52536 18.6014C6.61281 18.783 6.68009 18.931 6.67336 18.9377C6.66663 18.9444 6.50517 19.0588 6.31681 19.2001C5.66425 19.6845 5.28078 20.3303 5.13278 21.1847C5.03859 21.7363 5.10587 21.9583 5.41533 22.1131C5.63061 22.2207 10.5349 22.2342 10.8444 22.1333C11.1471 22.0256 11.2278 21.8171 11.1807 21.2789C11.1202 20.633 10.7771 19.9401 10.2658 19.4423C10.0438 19.227 9.80161 19.0319 9.72761 19.005C9.59979 18.9646 9.59979 18.9579 9.76798 18.635C9.8958 18.3861 9.94289 18.1977 9.94289 17.8815C9.94962 16.6706 8.87996 15.8027 7.72284 16.0786ZM8.65122 17.3299C9.12887 17.7873 8.79923 18.5677 8.11303 18.5677C7.79011 18.5677 7.43356 18.1977 7.43356 17.8613C7.43356 17.5451 7.52774 17.3837 7.79011 17.2155C8.06594 17.0406 8.39558 17.0877 8.65122 17.3299ZM9.03469 19.8728C9.4047 20.0612 9.8218 20.4918 9.96307 20.8281C10.0169 20.9492 10.0573 21.0703 10.0573 21.0905C10.0573 21.1107 9.2096 21.1241 8.17358 21.1241C6.03425 21.1241 6.11498 21.151 6.48499 20.5725C7.02319 19.7316 8.13994 19.4221 9.03469 19.8728Z" fill="#006FCB"/>
<path d="M12.4859 17.202C12.2572 17.3971 12.237 17.6998 12.4321 17.9353L12.6003 18.1304H16.7174H20.8346L20.9624 17.9689C21.1306 17.7604 21.1306 17.3971 20.9557 17.2222C20.8212 17.0876 20.7337 17.0876 16.7242 17.0876C12.9232 17.0876 12.6204 17.0944 12.4859 17.202Z" fill="#006FCB"/>
<path d="M12.4724 20.2428C12.3648 20.3505 12.2773 20.4917 12.2773 20.5523C12.2773 20.7137 12.459 21.0367 12.5801 21.0838C12.6406 21.1039 14.5176 21.1241 16.7444 21.1241H20.801L20.9423 20.9694C21.1576 20.7407 21.1441 20.3706 20.9154 20.189C20.7405 20.0477 20.6799 20.0477 16.704 20.0477H12.6675L12.4724 20.2428Z" fill="#006FCB"/>
<path d="M7.68917 23.1692C6.59933 23.4653 6.04768 24.6627 6.5186 25.6786L6.68678 26.0284L6.45805 26.1697C5.87276 26.533 5.30766 27.3672 5.15293 28.1072C5.03184 28.6723 5.05875 28.8472 5.27402 29.0692L5.46912 29.2643H8.10627C11.2614 29.2643 11.2009 29.2778 11.2009 28.5579C11.2009 27.7977 10.656 26.7684 9.99668 26.2773L9.61994 26.0015L9.7814 25.6718C10.2052 24.8175 9.78813 23.6603 8.93375 23.2903C8.49646 23.102 8.06591 23.0616 7.68917 23.1692ZM8.56374 24.3264C8.9472 24.5753 8.96065 25.2077 8.59737 25.4969C8.28118 25.7458 7.70935 25.6382 7.52771 25.2884C7.1577 24.5685 7.89099 23.8958 8.56374 24.3264ZM8.9472 26.903C9.33739 27.0779 9.70067 27.4143 9.89577 27.791C9.98322 27.9726 10.0572 28.1341 10.0572 28.1543C10.0572 28.1745 9.19612 28.1879 8.13991 28.1879H6.22259L6.31677 27.9524C6.54551 27.4075 7.11061 26.9164 7.66899 26.7819C8.01881 26.6944 8.59737 26.7482 8.9472 26.903Z" fill="#006FCB"/>
<path d="M12.5599 24.1985C12.459 24.2389 12.2773 24.5753 12.2773 24.7233C12.2773 24.7838 12.3648 24.9251 12.4724 25.0327L12.6675 25.2278H16.704C20.6799 25.2278 20.7405 25.2278 20.9154 25.0866C21.1508 24.9049 21.1576 24.508 20.9355 24.2995L20.7808 24.1515L16.7107 24.1582C14.4772 24.1582 12.607 24.1784 12.5599 24.1985Z" fill="#006FCB"/>
<path d="M12.6339 27.1788C12.4052 27.273 12.2572 27.5421 12.311 27.7843C12.4052 28.2014 12.2437 28.1879 16.7175 28.1879C20.727 28.1879 20.801 28.1879 20.9423 28.0534C21.1307 27.8784 21.1374 27.5219 20.9625 27.3066L20.8347 27.1452L16.8049 27.1317C14.558 27.125 12.7146 27.1452 12.6339 27.1788Z" fill="#006FCB"/>
</svg>
