<svg xmlns="http://www.w3.org/2000/svg" viewBox="0 0 64 64"><path fill="#3d9ae2" d="M42,41.58V61H6V41.58a6.013,6.013,0,0,1,4.42-5.79L16,34.16V39a2,2,0,0,1,4,0V36l4,3,4-3v3a2,2,0,0,1,4,0V34.16l5.58,1.63A6.014,6.014,0,0,1,41.97,41,5.49,5.49,0,0,1,42,41.58Z"/><polygon fill="#ff5023" points="41.97 41 39 41 39 45 42 45 49 45 49 41 41.97 41"/><polygon fill="#ed1c24" points="38 49 38 61 26 61 26 49 28 45 36 45 38 49"/><polygon fill="#e01a22" points="58 49 58 52 38 52 38 49 36 45 56 45 58 49"/><rect width="20" height="9" x="38" y="52" fill="#ff5023"/><path fill="#d1d3d4" d="M50,52v1a2,2,0,0,1-4,0V51a2.006,2.006,0,0,1,2-2,2.015,2.015,0,0,1,2,2Z"/><path fill="#1e81ce" d="M32 34.16V39a2 2 0 0 0-4 0V33zM20 36v3a2 2 0 0 0-4 0V34.16L20 33z"/><path fill="#f7910c" d="M35,16a1.986,1.986,0,0,1-1.47,1.92A1.586,1.586,0,0,1,33,18H15a1.586,1.586,0,0,1-.53-.08,1.785,1.785,0,0,1-.88-.51A1.955,1.955,0,0,1,13,16a2.006,2.006,0,0,1,2-2H33a2.015,2.015,0,0,1,2,2Z"/><path fill="#ffa733" d="M25,3H23a1,1,0,0,0-1,1V14h4V4A1,1,0,0,0,25,3Z"/><polygon fill="#ffc477" points="28 29 28 36 24 39 20 36 20 29 28 29"/><path fill="#ffb655" d="M28,29v3.06a8.981,8.981,0,0,1-8,0V29Z"/><path fill="#ffc477" d="M33,18v4a9,9,0,0,1-13,8.06A9.028,9.028,0,0,1,15,22V18Z"/><rect width="18" height="2" x="15" y="18" fill="#ffb655"/><path fill="#ff9811" d="M31.64 9.26a8.589 8.589 0 0 0-2.26-2.47A8.968 8.968 0 0 0 26 5.22V14h7A8.837 8.837 0 0 0 31.64 9.26zM16.36 9.26A8.837 8.837 0 0 0 15 14h7V5.22a8.968 8.968 0 0 0-3.38 1.57A8.589 8.589 0 0 0 16.36 9.26zM24 28a4 4 0 0 1-4-4h2a2 2 0 0 0 4 0h2A4 4 0 0 1 24 28z"/><rect width="2" height="2" x="19" y="20" fill="#ff9811"/><rect width="2" height="2" x="27" y="20" fill="#ff9811"/><rect width="2" height="16" x="12" y="45" fill="#1e81ce"/><path fill="#ed1c24" d="M50,45H48V42H40v3H38V41a1,1,0,0,1,1-1H49a1,1,0,0,1,1,1Z"/></svg>